CharSymSource-Regular.ufo
<glyph name="exclam" format="2">
  <advance width="569"/>
  <unicode hex="0021"/>
  <outline>
    <contour>
      <point x="394" y="1450" type="line"/>
      <point x="186" y="1450" type="line"/>
      <point x="186" y="1064" type="line"/>
      <point x="234" y="360" type="line"/>
      <point x="346" y="360" type="line"/>
      <point x="394" y="1064" type="line"/>
    </contour>
    <contour>
      <point x="386" y="192" type="line"/>
      <point x="194" y="192" type="line"/>
      <point x="194" y="0" type="line"/>
      <point x="386" y="0" type="line"/>
    </contour>
  </outline>
</glyph>
<glyph name="numbersign" format="2">
  <advance width="1139"/>
  <unicode hex="0023"/>
  <outline>
    <contour>
      <point x="1096" y="556" type="line"/>
      <point x="825" y="556" type="line"/>
      <point x="897" y="919" type="line"/>
      <point x="1096" y="919" type="line"/>
      <point x="1096" y="1058" type="line"/>
      <point x="929" y="1058" type="line"/>
      <point x="1017" y="1452" type="line"/>
      <point x="881" y="1452" type="line"/>
      <point x="801" y="1056" type="line"/>
      <point x="466" y="1056" type="line"/>
      <point x="553" y="1452" type="line"/>
      <point x="418" y="1452" type="line"/>
      <point x="338" y="1054" type="line"/>
      <point x="34" y="1054" type="line"/>
      <point x="34" y="913" type="line"/>
      <point x="306" y="913" type="line"/>
      <point x="235" y="551" type="line"/>
      <point x="34" y="551" type="line"/>
      <point x="34" y="412" type="line"/>
      <point x="202" y="412" type="line"/>
      <point x="122" y="0" type="line"/>
      <point x="258" y="0" type="line"/>
      <point x="338" y="414" type="line"/>
      <point x="665" y="414" type="line"/>
      <point x="585" y="0" type="line"/>
      <point x="713" y="0" type="line"/>
      <point x="809" y="416" type="line"/>
      <point x="1096" y="416" type="line"/>
    </contour>
    <contour>
      <point x="689" y="559" type="line"/>
      <point x="370" y="559" type="line"/>
      <point x="442" y="911" type="line"/>
      <point x="761" y="911" type="line"/>
    </contour>
  </outline>
</glyph>
<glyph name="dollar" format="2">
  <advance width="1139"/>
  <unicode hex="0024"/>
  <outline>
    <contour>
      <point x="1025" y="407" type="curve"/>
      <point x="1018" y="571"/>
      <point x="948" y="682"/>
      <point x="815" y="741" type="curve" smooth="yes"/>
      <point x="682" y="801"/>
      <point x="614" y="831"/>
      <point x="609" y="834" type="curve"/>
      <point x="609" y="1327" type="line"/>
      <point x="740" y="1303"/>
      <point x="798" y="1232"/>
      <point x="817" y="1105" type="curve"/>
      <point x="928" y="1121"/>
      <point x="986" y="1129"/>
      <point x="993" y="1129" type="curve"/>
      <point x="946" y="1362"/>
      <point x="826" y="1470"/>
      <point x="609" y="1470" type="curve"/>
      <point x="609" y="1556" type="line"/>
      <point x="514" y="1556" type="line"/>
      <point x="514" y="1470" type="line"/>
      <point x="289" y="1465"/>
      <point x="117" y="1325"/>
      <point x="117" y="1066" type="curve" smooth="yes"/>
      <point x="117" y="978"/>
      <point x="143" y="903"/>
      <point x="196" y="840" type="curve"/>
      <point x="282" y="760"/>
      <point x="388" y="705"/>
      <point x="514" y="674" type="curve"/>
      <point x="514" y="118" type="line"/>
      <point x="353" y="125"/>
      <point x="265" y="228"/>
      <point x="250" y="427" type="curve"/>
      <point x="90" y="395" type="line"/>
      <point x="133" y="112"/>
      <point x="270" y="-21"/>
      <point x="514" y="-21" type="curve"/>
      <point x="514" y="-204" type="line"/>
      <point x="609" y="-204" type="line"/>
      <point x="609" y="-21" type="line"/>
      <point x="870" y="-2"/>
      <point x="1009" y="141"/>
    </contour>
    <contour>
      <point x="514" y="858" type="line"/>
      <point x="355" y="895"/>
      <point x="288" y="998"/>
      <point x="288" y="1091" type="curve" smooth="yes"/>
      <point x="288" y="1186"/>
      <point x="356" y="1306"/>
      <point x="514" y="1327" type="curve"/>
    </contour>
    <contour>
      <point x="859" y="395" type="curve"/>
      <point x="859" y="250"/>
      <point x="776" y="159"/>
      <point x="609" y="120" type="curve"/>
      <point x="609" y="650" type="line"/>
      <point x="769" y="597"/>
      <point x="852" y="512"/>
    </contour>
  </outline>
</glyph>
<glyph name="ampersand" format="2">
  <advance width="1366"/>
  <unicode hex="0026"/>
  <outline>
    <contour>
      <point x="1296" y="116" type="curve"/>
      <point x="1225" y="175"/>
      <point x="1153" y="245"/>
      <point x="1081" y="328" type="curve"/>
      <point x="1134" y="413"/>
      <point x="1177" y="514"/>
      <point x="1208" y="635" type="curve"/>
      <point x="1025" y="667" type="line"/>
      <point x="1020" y="601"/>
      <point x="999" y="537"/>
      <point x="961" y="475" type="curve"/>
      <point x="861" y="580"/>
      <point x="773" y="687"/>
      <point x="696" y="804" type="curve"/>
      <point x="877" y="895"/>
      <point x="968" y="1012"/>
      <point x="969" y="1154" type="curve"/>
      <point x="946" y="1351"/>
      <point x="837" y="1453"/>
      <point x="641" y="1458" type="curve"/>
      <point x="418" y="1455"/>
      <point x="289" y="1347"/>
      <point x="289" y="1134" type="curve" smooth="yes"/>
      <point x="289" y="1059"/>
      <point x="343" y="956"/>
      <point x="450" y="827" type="curve"/>
      <point x="223" y="692"/>
      <point x="108" y="547"/>
      <point x="105" y="392" type="curve"/>
      <point x="122" y="133"/>
      <point x="271" y="-5"/>
      <point x="553" y="-20" type="curve"/>
      <point x="721" y="-15"/>
      <point x="859" y="49"/>
      <point x="968" y="172" type="curve"/>
      <point x="1054" y="86"/>
      <point x="1126" y="22"/>
      <point x="1184" y="-20" type="curve"/>
      <point x="1253" y="64"/>
      <point x="1291" y="108"/>
    </contour>
    <contour>
      <point x="785" y="1150" type="line"/>
      <point x="785" y="1075"/>
      <point x="726" y="997"/>
      <point x="608" y="916" type="curve"/>
      <point x="603" y="923"/>
      <point x="578" y="950"/>
      <point x="531" y="1006" type="curve" smooth="yes"/>
      <point x="491" y="1053"/>
      <point x="471" y="1098"/>
      <point x="471" y="1142" type="curve" smooth="yes"/>
      <point x="471" y="1250"/>
      <point x="520" y="1306"/>
      <point x="633" y="1314" type="curve"/>
      <point x="734" y="1305"/>
      <point x="785" y="1254"/>
      <point x="785" y="1163" type="curve" smooth="yes"/>
    </contour>
    <contour>
      <point x="857" y="308" type="curve"/>
      <point x="744" y="187"/>
      <point x="645" y="132"/>
      <point x="557" y="132" type="curve"/>
      <point x="401" y="144"/>
      <point x="314" y="235"/>
      <point x="297" y="404" type="curve"/>
      <point x="297" y="519"/>
      <point x="377" y="620"/>
      <point x="538" y="707" type="curve"/>
      <point x="651" y="555"/>
      <point x="756" y="425"/>
    </contour>
  </outline>
</glyph>
<glyph name="parenright" format="2">
  <advance width="682"/>
  <unicode hex="0029"/>
  <outline>
    <contour>
      <point x="561" y="517" type="curve"/>
      <point x="560" y="654"/>
      <point x="545" y="775"/>
      <point x="510" y="891" type="curve" smooth="yes"/>
      <point x="457" y="1062"/>
      <point x="333" y="1261"/>
      <point x="218" y="1451" type="curve"/>
      <point x="98" y="1451" type="line"/>
      <point x="205" y="1253" type="line" smooth="yes"/>
      <point x="333" y="1013"/>
      <point x="385" y="787"/>
      <point x="385" y="521" type="curve" smooth="yes"/>
      <point x="385" y="373"/>
      <point x="363" y="223"/>
      <point x="320" y="72" type="curve" smooth="yes"/>
      <point x="272" y="-94"/>
      <point x="189" y="-246"/>
      <point x="98" y="-418" type="curve"/>
      <point x="218" y="-418" type="line"/>
      <point x="229" y="-399"/>
      <point x="309" y="-283"/>
      <point x="322" y="-265" type="curve"/>
      <point x="485" y="-13"/>
      <point x="560" y="252"/>
    </contour>
  </outline>
</glyph>
<glyph name="greater" format="2">
  <advance width="1196"/>
  <unicode hex="003E"/>
  <outline>
    <contour>
      <point x="1072" y="784" type="line"/>
      <point x="129" y="1183" type="line"/>
      <point x="129" y="1015" type="line"/>
      <point x="880" y="704" type="line"/>
      <point x="129" y="374" type="line"/>
      <point x="129" y="217" type="line"/>
      <point x="1072" y="625" type="line"/>
    </contour>
  </outline>
</glyph>
<glyph name="I" format="2">
  <advance width="569"/>
  <unicode hex="0049"/>
  <outline>
    <contour>
      <point x="376" y="1450" type="line"/>
      <point x="192" y="1450" type="line"/>
      <point x="192" y="0" type="line"/>
      <point x="376" y="0" type="line"/>
    </contour>
  </outline>
</glyph>
<glyph name="O" format="2">
  <advance width="1593"/>
  <unicode hex="004F"/>
  <outline>
    <contour>
      <point x="1479" y="720" type="curve" smooth="yes"/>
      <point x="1479" y="1150"/>
      <point x="1201" y="1470"/>
      <point x="797" y="1470" type="curve" smooth="yes"/>
      <point x="380" y="1470"/>
      <point x="113" y="1179"/>
      <point x="113" y="712" type="curve" smooth="yes"/>
      <point x="113" y="287"/>
      <point x="400" y="-20"/>
      <point x="797" y="-20" type="curve" smooth="yes"/>
      <point x="1220" y="-20"/>
      <point x="1479" y="264"/>
    </contour>
    <contour>
      <point x="1296" y="720" type="curve" smooth="yes"/>
      <point x="1296" y="362"/>
      <point x="1106" y="122"/>
      <point x="797" y="122" type="curve" smooth="yes"/>
      <point x="487" y="122"/>
      <point x="296" y="364"/>
      <point x="296" y="704" type="curve" smooth="yes"/>
      <point x="296" y="1069"/>
      <point x="492" y="1320"/>
      <point x="797" y="1320" type="curve" smooth="yes"/>
      <point x="1106" y="1320"/>
      <point x="1296" y="1073"/>
    </contour>
  </outline>
</glyph>
<glyph name="S" format="2">
  <advance width="1366"/>
  <unicode hex="0053"/>
  <outline>
    <contour>
      <point x="1239" y="399" type="curve"/>
      <point x="1239" y="590"/>
      <point x="1106" y="722"/>
      <point x="833" y="801" type="curve"/>
      <point x="701" y="826"/>
      <point x="584" y="856"/>
      <point x="480" y="893" type="curve" smooth="yes"/>
      <point x="376" y="930"/>
      <point x="323" y="993"/>
      <point x="321" y="1082" type="curve"/>
      <point x="341" y="1239"/>
      <point x="456" y="1321"/>
      <point x="665" y="1328" type="curve"/>
      <point x="890" y="1319"/>
      <point x="1014" y="1221"/>
      <point x="1039" y="1033" type="curve"/>
      <point x="1191" y="1046" type="line"/>
      <point x="1172" y="1317"/>
      <point x="998" y="1458"/>
      <point x="669" y="1470" type="curve"/>
      <point x="350" y="1458"/>
      <point x="181" y="1325"/>
      <point x="162" y="1070" type="curve"/>
      <point x="162" y="871"/>
      <point x="326" y="739"/>
      <point x="675" y="667" type="curve" smooth="yes"/>
      <point x="946" y="611"/>
      <point x="1082" y="518"/>
      <point x="1082" y="389" type="curve" smooth="yes"/>
      <point x="1082" y="235"/>
      <point x="942" y="142"/>
      <point x="710" y="121" type="curve" smooth="yes"/>
      <point x="697" y="120"/>
      <point x="685" y="121"/>
      <point x="673" y="120" type="curve"/>
      <point x="422" y="120"/>
      <point x="282" y="239"/>
      <point x="251" y="478" type="curve"/>
      <point x="106" y="451" type="line"/>
      <point x="137" y="143"/>
      <point x="335" y="-14"/>
      <point x="702" y="-21" type="curve"/>
      <point x="1039" y="0"/>
      <point x="1218" y="140"/>
    </contour>
  </outline>
</glyph>
<glyph name="bracketright" format="2">
  <advance width="569"/>
  <unicode hex="005D"/>
  <outline>
    <contour>
      <point x="442" y="1450" type="line"/>
      <point x="58" y="1450" type="line"/>
      <point x="58" y="1333" type="line"/>
      <point x="286" y="1333" type="line"/>
      <point x="286" y="-293" type="line"/>
      <point x="58" y="-293" type="line"/>
      <point x="58" y="-410" type="line"/>
      <point x="442" y="-410" type="line"/>
    </contour>
  </outline>
</glyph>
<glyph name="b" format="2">
  <advance width="1139"/>
  <unicode hex="0062"/>
  <outline>
    <contour>
      <point x="1025" y="520" type="curve" smooth="yes"/>
      <point x="1025" y="820"/>
      <point x="834" y="1074"/>
      <point x="589" y="1074" type="curve" smooth="yes"/>
      <point x="477" y="1074"/>
      <point x="405" y="1040"/>
      <point x="304" y="939" type="curve"/>
      <point x="304" y="1450" type="line"/>
      <point x="170" y="1450" type="line"/>
      <point x="170" y="0" type="line"/>
      <point x="304" y="0" type="line"/>
      <point x="304" y="116" type="line"/>
      <point x="401" y="19"/>
      <point x="477" y="-20"/>
      <point x="589" y="-20" type="curve" smooth="yes"/>
      <point x="839" y="-20"/>
      <point x="1025" y="223"/>
    </contour>
    <contour>
      <point x="889" y="520" type="curve" smooth="yes"/>
      <point x="889" y="307"/>
      <point x="761" y="116"/>
      <point x="589" y="116" type="curve" smooth="yes"/>
      <point x="422" y="116"/>
      <point x="305" y="299"/>
      <point x="305" y="520" type="curve" smooth="yes"/>
      <point x="305" y="732"/>
      <point x="428" y="940"/>
      <point x="589" y="940" type="curve" smooth="yes"/>
      <point x="756" y="940"/>
      <point x="889" y="745"/>
    </contour>
  </outline>
</glyph>
<glyph name="f" format="2">
  <advance width="569"/>
  <unicode hex="0066"/>
  <outline>
    <contour>
      <point x="346" y="1182" type="line" smooth="yes"/>
      <point x="346" y="1294"/>
      <point x="380" y="1322"/>
      <point x="625" y="1322" type="curve"/>
      <point x="633" y="1450" type="line"/>
      <point x="625" y="1449"/>
      <point x="617" y="1448"/>
      <point x="606" y="1448" type="curve" smooth="yes"/>
      <point x="578" y="1448"/>
      <point x="544" y="1450"/>
      <point x="525" y="1450" type="curve" smooth="yes"/>
      <point x="422" y="1450"/>
      <point x="347" y="1434"/>
      <point x="300" y="1403" type="curve" smooth="yes"/>
      <point x="226" y="1353"/>
      <point x="218" y="1325"/>
      <point x="218" y="1054" type="curve"/>
      <point x="34" y="1054" type="line"/>
      <point x="34" y="927" type="line"/>
      <point x="218" y="927" type="line"/>
      <point x="218" y="0" type="line"/>
      <point x="346" y="0" type="line"/>
      <point x="346" y="927" type="line"/>
      <point x="569" y="927" type="line"/>
      <point x="569" y="1054" type="line"/>
      <point x="346" y="1054" type="line"/>
    </contour>
  </outline>
</glyph>
<glyph name="j" format="2">
  <advance width="455"/>
  <unicode hex="006A"/>
  <outline>
    <contour>
      <point x="350" y="1285" type="line"/>
      <point x="350" y="1346"/>
      <point x="314" y="1378"/>
      <point x="274" y="1378" type="curve" smooth="yes"/>
      <point x="227" y="1378"/>
      <point x="198" y="1331"/>
      <point x="198" y="1278" type="curve" smooth="yes"/>
      <point x="198" y="1229"/>
      <point x="229" y="1186"/>
      <point x="274" y="1186" type="curve" smooth="yes"/>
      <point x="323" y="1186"/>
      <point x="350" y="1225"/>
      <point x="350" y="1282" type="curve" smooth="yes"/>
    </contour>
    <contour>
      <point x="338" y="1054" type="line"/>
      <point x="210" y="1054" type="line"/>
      <point x="210" y="-107" type="line" smooth="yes"/>
      <point x="210" y="-223"/>
      <point x="176" y="-279"/>
      <point x="100" y="-279" type="curve" smooth="yes"/>
      <point x="75" y="-279"/>
      <point x="45" y="-272"/>
      <point x="17" y="-261" type="curve"/>
      <point x="-35" y="-385" type="line"/>
      <point x="32" y="-402"/>
      <point x="69" y="-410"/>
      <point x="105" y="-410" type="curve" smooth="yes"/>
      <point x="260" y="-410"/>
      <point x="338" y="-320"/>
      <point x="338" y="-139" type="curve" smooth="yes"/>
    </contour>
  </outline>
</glyph>
<glyph name="p" format="2">
  <advance width="1139"/>
  <unicode hex="0070"/>
  <outline>
    <contour>
      <point x="1025" y="521" type="curve" smooth="yes"/>
      <point x="1025" y="815"/>
      <point x="838" y="1074"/>
      <point x="589" y="1074" type="curve" smooth="yes"/>
      <point x="479" y="1074"/>
      <point x="409" y="1040"/>
      <point x="304" y="935" type="curve"/>
      <point x="304" y="1054" type="line"/>
      <point x="170" y="1054" type="line"/>
      <point x="170" y="-409" type="line"/>
      <point x="304" y="-409" type="line"/>
      <point x="304" y="117" type="line"/>
      <point x="402" y="19"/>
      <point x="483" y="-20"/>
      <point x="589" y="-20" type="curve" smooth="yes"/>
      <point x="840" y="-20"/>
      <point x="1025" y="227"/>
    </contour>
    <contour>
      <point x="889" y="521" type="curve" smooth="yes"/>
      <point x="889" y="306"/>
      <point x="759" y="116"/>
      <point x="589" y="116" type="curve" smooth="yes"/>
      <point x="420" y="116"/>
      <point x="305" y="302"/>
      <point x="305" y="521" type="curve" smooth="yes"/>
      <point x="305" y="738"/>
      <point x="429" y="940"/>
      <point x="589" y="940" type="curve" smooth="yes"/>
      <point x="756" y="940"/>
      <point x="889" y="749"/>
    </contour>
  </outline>
</glyph>
<glyph name="x" format="2">
  <advance width="1024"/>
  <unicode hex="0078"/>
  <outline>
    <contour>
      <point x="601" y="560" type="line"/>
      <point x="945" y="1054" type="line"/>
      <point x="777" y="1054" type="line"/>
      <point x="506" y="663" type="line"/>
      <point x="258" y="1054" type="line"/>
      <point x="82" y="1054" type="line"/>
      <point x="434" y="543" type="line"/>
      <point x="58" y="0" type="line"/>
      <point x="218" y="0" type="line"/>
      <point x="522" y="440" type="line"/>
      <point x="801" y="0" type="line"/>
      <point x="977" y="0" type="line"/>
    </contour>
  </outline>
</glyph>
<glyph name="back_1" format="2">
  <advance width="2562"/>
  <unicode hex="E021"/>
  <outline>
    <contour>
      <point x="1525" y="915" type="line"/>
      <point x="1130" y="1310" type="line" smooth="yes"/>
      <point x="1128" y="1312"/>
      <point x="1126" y="1313"/>
      <point x="1123" y="1313" type="curve" smooth="yes"/>
      <point x="1120" y="1313"/>
      <point x="1118" y="1312"/>
      <point x="1116" y="1310" type="curve" smooth="yes"/>
      <point x="1000" y="1195" type="line" smooth="yes"/>
      <point x="998" y="1193"/>
      <point x="997" y="1191"/>
      <point x="997" y="1188" type="curve" smooth="yes"/>
      <point x="997" y="1185"/>
      <point x="998" y="1183"/>
      <point x="1000" y="1181" type="curve" smooth="yes"/>
      <point x="1397" y="785" type="line"/>
      <point x="1000" y="389" type="line" smooth="yes"/>
      <point x="998" y="387"/>
      <point x="997" y="385"/>
      <point x="997" y="382" type="curve" smooth="yes"/>
      <point x="997" y="379"/>
      <point x="998" y="377"/>
      <point x="1000" y="375" type="curve" smooth="yes"/>
      <point x="1116" y="260" type="line" smooth="yes"/>
      <point x="1118" y="258"/>
      <point x="1120" y="257"/>
      <point x="1123" y="257" type="curve" smooth="yes"/>
      <point x="1126" y="257"/>
      <point x="1128" y="258"/>
      <point x="1130" y="260" type="curve" smooth="yes"/>
      <point x="1525" y="655" type="line"/>
      <point x="1921" y="260" type="line" smooth="yes"/>
      <point x="1923" y="258"/>
      <point x="1925" y="257"/>
      <point x="1928" y="257" type="curve" smooth="yes"/>
      <point x="1931" y="257"/>
      <point x="1933" y="258"/>
      <point x="1935" y="260" type="curve" smooth="yes"/>
      <point x="2050" y="375" type="line" smooth="yes"/>
      <point x="2052" y="377"/>
      <point x="2053" y="379"/>
      <point x="2053" y="382" type="curve" smooth="yes"/>
      <point x="2053" y="385"/>
      <point x="2052" y="387"/>
      <point x="2050" y="389" type="curve" smooth="yes"/>
      <point x="1655" y="785" type="line"/>
      <point x="2050" y="1181" type="line" smooth="yes"/>
      <point x="2052" y="1183"/>
      <point x="2053" y="1185"/>
      <point x="2053" y="1188" type="curve" smooth="yes"/>
      <point x="2053" y="1191"/>
      <point x="2052" y="1193"/>
      <point x="2050" y="1195" type="curve" smooth="yes"/>
      <point x="1935" y="1310" type="line" smooth="yes"/>
      <point x="1933" y="1312"/>
      <point x="1931" y="1313"/>
      <point x="1928" y="1313" type="curve" smooth="yes"/>
      <point x="1925" y="1313"/>
      <point x="1923" y="1312"/>
      <point x="1921" y="1310" type="curve" smooth="yes"/>
    </contour>
    <contour>
      <point x="945" y="144" type="line"/>
      <point x="304" y="785" type="line"/>
      <point x="945" y="1426" type="line"/>
      <point x="2329" y="1426" type="line"/>
      <point x="2329" y="144" type="line"/>
    </contour>
    <contour>
      <point x="2512" y="1599" type="line"/>
      <point x="2512" y="1606"/>
      <point x="2509" y="1609"/>
      <point x="2502" y="1609" type="curve" smooth="yes"/>
      <point x="874" y="1609" type="line" smooth="yes"/>
      <point x="871" y="1609"/>
      <point x="869" y="1608"/>
      <point x="867" y="1606" type="curve" smooth="yes"/>
      <point x="53" y="792" type="line" smooth="yes"/>
      <point x="51" y="790"/>
      <point x="50" y="788"/>
      <point x="50" y="785" type="curve" smooth="yes"/>
      <point x="50" y="782"/>
      <point x="51" y="780"/>
      <point x="53" y="778" type="curve" smooth="yes"/>
      <point x="867" y="-36" type="line" smooth="yes"/>
      <point x="869" y="-38"/>
      <point x="871" y="-39"/>
      <point x="874" y="-39" type="curve" smooth="yes"/>
      <point x="2502" y="-39" type="line" smooth="yes"/>
      <point x="2509" y="-39"/>
      <point x="2512" y="-36"/>
      <point x="2512" y="-29" type="curve" smooth="yes"/>
    </contour>
  </outline>
</glyph>
<glyph name="close_1" format="2">
  <advance width="1336"/>
  <unicode hex="E027"/>
  <outline>
    <contour>
      <point x="268" y="1309" type="line"/>
      <point x="257" y="1320"/>
      <point x="244" y="1326"/>
      <point x="229" y="1325" type="curve"/>
      <point x="215" y="1326"/>
      <point x="202" y="1320"/>
      <point x="191" y="1309" type="curve" smooth="yes"/>
      <point x="66" y="1184" type="line" smooth="yes"/>
      <point x="55" y="1173"/>
      <point x="50" y="1160"/>
      <point x="50" y="1145" type="curve" smooth="yes"/>
      <point x="50" y="1130"/>
      <point x="55" y="1117"/>
      <point x="66" y="1106" type="curve" smooth="yes"/>
      <point x="465" y="708" type="line"/>
      <point x="66" y="309" type="line" smooth="yes"/>
      <point x="55" y="298"/>
      <point x="50" y="285"/>
      <point x="50" y="270" type="curve" smooth="yes"/>
      <point x="50" y="255"/>
      <point x="55" y="242"/>
      <point x="66" y="232" type="curve"/>
      <point x="191" y="106" type="line" smooth="yes"/>
      <point x="201" y="95"/>
      <point x="214" y="90"/>
      <point x="229" y="90" type="curve" smooth="yes"/>
      <point x="244" y="90"/>
      <point x="257" y="95"/>
      <point x="268" y="106" type="curve" smooth="yes"/>
      <point x="668" y="505" type="line"/>
      <point x="1067" y="106" type="line" smooth="yes"/>
      <point x="1077" y="95"/>
      <point x="1090" y="90"/>
      <point x="1105" y="90" type="curve" smooth="yes"/>
      <point x="1120" y="90"/>
      <point x="1133" y="95"/>
      <point x="1144" y="106" type="curve" smooth="yes"/>
      <point x="1270" y="232" type="line" smooth="yes"/>
      <point x="1281" y="243"/>
      <point x="1286" y="255"/>
      <point x="1286" y="270" type="curve" smooth="yes"/>
      <point x="1286" y="284"/>
      <point x="1281" y="297"/>
      <point x="1270" y="309" type="curve"/>
      <point x="870" y="708" type="line"/>
      <point x="1270" y="1106" type="line" smooth="yes"/>
      <point x="1281" y="1117"/>
      <point x="1285" y="1130"/>
      <point x="1286" y="1145" type="curve" smooth="yes"/>
      <point x="1286" y="1159"/>
      <point x="1281" y="1172"/>
      <point x="1270" y="1184" type="curve"/>
      <point x="1144" y="1309" type="line" smooth="yes"/>
      <point x="1133" y="1320"/>
      <point x="1120" y="1326"/>
      <point x="1105" y="1325" type="curve"/>
      <point x="1091" y="1326"/>
      <point x="1078" y="1320"/>
      <point x="1067" y="1309" type="curve" smooth="yes"/>
      <point x="668" y="911" type="line"/>
    </contour>
    <contour>
      <point x="668" y="833" type="line"/>
      <point x="1105" y="1271" type="line"/>
      <point x="1231" y="1145" type="line"/>
      <point x="793" y="708" type="line"/>
      <point x="1231" y="270" type="line"/>
      <point x="1105" y="145" type="line"/>
      <point x="668" y="582" type="line"/>
      <point x="230" y="145" type="line"/>
      <point x="105" y="270" type="line"/>
      <point x="543" y="708" type="line"/>
      <point x="105" y="1145" type="line"/>
      <point x="230" y="1271" type="line"/>
    </contour>
  </outline>
</glyph>
<glyph name="help_1" format="2">
  <advance width="2090"/>
  <unicode hex="E042"/>
  <outline>
    <contour>
      <point x="50" y="789" type="curve" smooth="yes"/>
      <point x="50" y="238"/>
      <point x="495" y="-206"/>
      <point x="1045" y="-206" type="curve" smooth="yes"/>
      <point x="1594" y="-206"/>
      <point x="2040" y="239"/>
      <point x="2040" y="789" type="curve" smooth="yes"/>
      <point x="2040" y="1338"/>
      <point x="1594" y="1784"/>
      <point x="1045" y="1784" type="curve" smooth="yes"/>
      <point x="494" y="1784"/>
      <point x="50" y="1338"/>
    </contour>
    <contour>
      <point x="773" y="249" type="curve" smooth="yes"/>
      <point x="773" y="340"/>
      <point x="833" y="413"/>
      <point x="933" y="413" type="curve" smooth="yes"/>
      <point x="1020" y="413"/>
      <point x="1071" y="366"/>
      <point x="1071" y="293" type="curve" smooth="yes"/>
      <point x="1071" y="225"/>
      <point x="1025" y="129"/>
      <point x="910" y="129" type="curve" smooth="yes"/>
      <point x="819" y="129"/>
      <point x="773" y="169"/>
    </contour>
    <contour>
      <point x="953" y="466" type="line"/>
      <point x="886" y="530"/>
      <point x="868" y="569"/>
      <point x="868" y="612" type="curve" smooth="yes"/>
      <point x="868" y="636"/>
      <point x="877" y="664"/>
      <point x="892" y="696" type="curve"/>
      <point x="892" y="695" type="line"/>
      <point x="912" y="739"/>
      <point x="1078" y="903"/>
      <point x="1115" y="964" type="curve" smooth="yes"/>
      <point x="1134" y="995"/>
      <point x="1143" y="1030"/>
      <point x="1143" y="1067" type="curve" smooth="yes"/>
      <point x="1143" y="1131"/>
      <point x="1097" y="1175"/>
      <point x="1029" y="1175" type="curve" smooth="yes"/>
      <point x="1004" y="1175"/>
      <point x="977" y="1166"/>
      <point x="954" y="1151" type="curve" smooth="yes"/>
      <point x="937" y="1139"/>
      <point x="914" y="1097"/>
      <point x="889" y="1033" type="curve"/>
      <point x="850" y="1018" type="line"/>
      <point x="772" y="1030" type="line"/>
      <point x="762" y="1053" type="line"/>
      <point x="794" y="1136"/>
      <point x="815" y="1204"/>
      <point x="830" y="1263" type="curve"/>
      <point x="933" y="1329"/>
      <point x="1008" y="1348"/>
      <point x="1093" y="1348" type="curve" smooth="yes"/>
      <point x="1287" y="1348"/>
      <point x="1430" y="1242"/>
      <point x="1430" y="1078" type="curve" smooth="yes"/>
      <point x="1430" y="939"/>
      <point x="1349" y="862"/>
      <point x="1156" y="728" type="curve" smooth="yes"/>
      <point x="1064" y="665"/>
      <point x="1022" y="632"/>
      <point x="1022" y="580" type="curve" smooth="yes"/>
      <point x="1022" y="557"/>
      <point x="1031" y="537"/>
      <point x="1050" y="518" type="curve"/>
      <point x="1050" y="502" type="line"/>
      <point x="1005" y="466" type="line"/>
    </contour>
  </outline>
</glyph>
<glyph name="left_alt_ctrl_shift" format="2">
  <advance width="4025"/>
  <unicode hex="E062"/>
  <outline>
    <contour>
      <point x="2470" y="1640" type="line"/>
      <point x="2479" y="1667"/>
      <point x="2488" y="1688"/>
      <point x="2499" y="1719" type="curve"/>
      <point x="2530" y="1640" type="line"/>
      <point x="2652" y="1306" type="line"/>
      <point x="2348" y="1306" type="line"/>
    </contour>
    <contour>
      <point x="3198" y="1919" type="line"/>
      <point x="3198" y="1930"/>
      <point x="3189" y="1939"/>
      <point x="3178" y="1939" type="curve" smooth="yes"/>
      <point x="3085" y="1939" type="line" smooth="yes"/>
      <point x="3074" y="1939"/>
      <point x="3065" y="1930"/>
      <point x="3065" y="1919" type="curve" smooth="yes"/>
      <point x="3065" y="867" type="line" smooth="yes"/>
      <point x="3065" y="856"/>
      <point x="3074" y="847"/>
      <point x="3085" y="847" type="curve" smooth="yes"/>
      <point x="3178" y="847" type="line" smooth="yes"/>
      <point x="3189" y="847"/>
      <point x="3198" y="856"/>
      <point x="3198" y="867" type="curve" smooth="yes"/>
    </contour>
    <contour>
      <point x="3975" y="711" type="line"/>
      <point x="3975" y="722"/>
      <point x="3966" y="731"/>
      <point x="3955" y="731" type="curve" smooth="yes"/>
      <point x="3862" y="731" type="line" smooth="yes"/>
      <point x="3851" y="731"/>
      <point x="3842" y="722"/>
      <point x="3842" y="711" type="curve" smooth="yes"/>
      <point x="3842" y="-342" type="line" smooth="yes"/>
      <point x="3842" y="-353"/>
      <point x="3851" y="-362"/>
      <point x="3862" y="-362" type="curve" smooth="yes"/>
      <point x="3955" y="-362" type="line" smooth="yes"/>
      <point x="3966" y="-362"/>
      <point x="3975" y="-353"/>
      <point x="3975" y="-342" type="curve" smooth="yes"/>
    </contour>
    <contour>
      <point x="3750" y="400" type="line"/>
      <point x="3750" y="401"/>
      <point x="3743" y="404"/>
      <point x="3736" y="408" type="curve" smooth="yes"/>
      <point x="3727" y="413" type="line" smooth="yes"/>
      <point x="3695" y="430"/>
      <point x="3646" y="457"/>
      <point x="3591" y="457" type="curve" smooth="yes"/>
      <point x="3528" y="457"/>
      <point x="3489" y="442"/>
      <point x="3450" y="398" type="curve"/>
      <point x="3450" y="423" type="line" smooth="yes"/>
      <point x="3450" y="434"/>
      <point x="3441" y="443"/>
      <point x="3430" y="443" type="curve" smooth="yes"/>
      <point x="3333" y="443" type="line" smooth="yes"/>
      <point x="3322" y="443"/>
      <point x="3313" y="434"/>
      <point x="3313" y="423" type="curve" smooth="yes"/>
      <point x="3313" y="-342" type="line" smooth="yes"/>
      <point x="3313" y="-353"/>
      <point x="3322" y="-362"/>
      <point x="3333" y="-362" type="curve" smooth="yes"/>
      <point x="3426" y="-362" type="line" smooth="yes"/>
      <point x="3437" y="-362"/>
      <point x="3446" y="-353"/>
      <point x="3446" y="-342" type="curve" smooth="yes"/>
      <point x="3446" y="87" type="line" smooth="yes"/>
      <point x="3446" y="167"/>
      <point x="3501" y="325"/>
      <point x="3585" y="325" type="curve" smooth="yes"/>
      <point x="3614" y="325"/>
      <point x="3654" y="311"/>
      <point x="3681" y="292" type="curve"/>
      <point x="3697" y="292"/>
      <point x="3758" y="357"/>
      <point x="3764" y="374" type="curve"/>
    </contour>
    <contour>
      <point x="3224" y="-332" type="line"/>
      <point x="3213" y="-306"/>
      <point x="3204" y="-276"/>
      <point x="3195" y="-241" type="curve" smooth="yes"/>
      <point x="3193" y="-231"/>
      <point x="3187" y="-226"/>
      <point x="3176" y="-226" type="curve" smooth="yes"/>
      <point x="3173" y="-226"/>
      <point x="3171" y="-226"/>
      <point x="3170" y="-227" type="curve"/>
      <point x="3162" y="-229" type="line" smooth="yes"/>
      <point x="3138" y="-236"/>
      <point x="3120" y="-241"/>
      <point x="3099" y="-241" type="curve" smooth="yes"/>
      <point x="3064" y="-241"/>
      <point x="3046" y="-225"/>
      <point x="3046" y="-194" type="curve" smooth="yes"/>
      <point x="3046" y="311" type="line"/>
      <point x="3171" y="311" type="line" smooth="yes"/>
      <point x="3182" y="311"/>
      <point x="3191" y="320"/>
      <point x="3191" y="331" type="curve" smooth="yes"/>
      <point x="3191" y="423" type="line" smooth="yes"/>
      <point x="3191" y="434"/>
      <point x="3182" y="443"/>
      <point x="3171" y="443" type="curve" smooth="yes"/>
      <point x="3046" y="443" type="line"/>
      <point x="3046" y="624" type="line" smooth="yes"/>
      <point x="3046" y="635"/>
      <point x="3037" y="644"/>
      <point x="3026" y="644" type="curve" smooth="yes"/>
      <point x="2933" y="644" type="line" smooth="yes"/>
      <point x="2922" y="644"/>
      <point x="2913" y="635"/>
      <point x="2913" y="624" type="curve" smooth="yes"/>
      <point x="2913" y="443" type="line"/>
      <point x="2829" y="443" type="line" smooth="yes"/>
      <point x="2818" y="443"/>
      <point x="2809" y="434"/>
      <point x="2809" y="423" type="curve" smooth="yes"/>
      <point x="2809" y="331" type="line" smooth="yes"/>
      <point x="2809" y="320"/>
      <point x="2818" y="311"/>
      <point x="2829" y="311" type="curve" smooth="yes"/>
      <point x="2913" y="311" type="line"/>
      <point x="2913" y="-205" type="line" smooth="yes"/>
      <point x="2913" y="-319"/>
      <point x="2972" y="-376"/>
      <point x="3089" y="-376" type="curve" smooth="yes"/>
      <point x="3122" y="-376"/>
      <point x="3151" y="-371"/>
      <point x="3182" y="-364" type="curve" smooth="yes"/>
      <point x="3209" y="-359" type="line"/>
    </contour>
    <contour>
      <point x="3746" y="892" type="line"/>
      <point x="3736" y="917"/>
      <point x="3727" y="947"/>
      <point x="3718" y="982" type="curve" smooth="yes"/>
      <point x="3716" y="992"/>
      <point x="3710" y="997"/>
      <point x="3699" y="997" type="curve" smooth="yes"/>
      <point x="3696" y="997"/>
      <point x="3693" y="997"/>
      <point x="3692" y="996" type="curve" smooth="yes"/>
      <point x="3663" y="985"/>
      <point x="3645" y="982"/>
      <point x="3620" y="982" type="curve" smooth="yes"/>
      <point x="3585" y="982"/>
      <point x="3568" y="998"/>
      <point x="3568" y="1029" type="curve" smooth="yes"/>
      <point x="3568" y="1534" type="line"/>
      <point x="3693" y="1534" type="line" smooth="yes"/>
      <point x="3704" y="1534"/>
      <point x="3713" y="1543"/>
      <point x="3713" y="1554" type="curve" smooth="yes"/>
      <point x="3713" y="1646" type="line" smooth="yes"/>
      <point x="3713" y="1657"/>
      <point x="3704" y="1666"/>
      <point x="3693" y="1666" type="curve" smooth="yes"/>
      <point x="3568" y="1666" type="line"/>
      <point x="3568" y="1847" type="line" smooth="yes"/>
      <point x="3568" y="1858"/>
      <point x="3559" y="1867"/>
      <point x="3548" y="1867" type="curve" smooth="yes"/>
      <point x="3455" y="1867" type="line" smooth="yes"/>
      <point x="3444" y="1867"/>
      <point x="3435" y="1858"/>
      <point x="3435" y="1847" type="curve" smooth="yes"/>
      <point x="3435" y="1666" type="line"/>
      <point x="3351" y="1666" type="line" smooth="yes"/>
      <point x="3340" y="1666"/>
      <point x="3331" y="1657"/>
      <point x="3331" y="1646" type="curve" smooth="yes"/>
      <point x="3331" y="1554" type="line" smooth="yes"/>
      <point x="3331" y="1543"/>
      <point x="3340" y="1534"/>
      <point x="3351" y="1534" type="curve" smooth="yes"/>
      <point x="3435" y="1534" type="line"/>
      <point x="3435" y="1018" type="line" smooth="yes"/>
      <point x="3435" y="904"/>
      <point x="3494" y="847"/>
      <point x="3611" y="847" type="curve" smooth="yes"/>
      <point x="3644" y="847"/>
      <point x="3673" y="852"/>
      <point x="3704" y="859" type="curve" smooth="yes"/>
      <point x="3731" y="864" type="line"/>
    </contour>
    <contour>
      <point x="2702" y="403" type="line"/>
      <point x="2713" y="406"/>
      <point x="2718" y="412"/>
      <point x="2718" y="423" type="curve"/>
      <point x="2717" y="428" type="line" smooth="yes"/>
      <point x="2659" y="637"/>
      <point x="2523" y="742"/>
      <point x="2308" y="742" type="curve" smooth="yes"/>
      <point x="2296" y="742" type="line" smooth="yes"/>
      <point x="1965" y="737"/>
      <point x="1794" y="553"/>
      <point x="1790" y="193" type="curve" smooth="yes"/>
      <point x="1790" y="180" type="line" smooth="yes"/>
      <point x="1790" y="-185"/>
      <point x="1956" y="-366"/>
      <point x="2287" y="-369" type="curve" smooth="yes"/>
      <point x="2293" y="-369" type="line" smooth="yes"/>
      <point x="2533" y="-369"/>
      <point x="2673" y="-251"/>
      <point x="2718" y="-22" type="curve"/>
      <point x="2718" y="-18" type="line" smooth="yes"/>
      <point x="2718" y="-7"/>
      <point x="2713" y="0"/>
      <point x="2702" y="2" type="curve" smooth="yes"/>
      <point x="2584" y="25" type="line"/>
      <point x="2573" y="25"/>
      <point x="2566" y="20"/>
      <point x="2564" y="9" type="curve" smooth="yes"/>
      <point x="2529" y="-156"/>
      <point x="2433" y="-237"/>
      <point x="2280" y="-240" type="curve"/>
      <point x="2068" y="-225"/>
      <point x="1952" y="-78"/>
      <point x="1952" y="173" type="curve" smooth="yes"/>
      <point x="1952" y="183" type="line" smooth="yes"/>
      <point x="1955" y="437"/>
      <point x="2080" y="586"/>
      <point x="2287" y="599" type="curve"/>
      <point x="2430" y="596"/>
      <point x="2525" y="530"/>
      <point x="2564" y="394" type="curve" smooth="yes"/>
      <point x="2567" y="384"/>
      <point x="2574" y="379"/>
      <point x="2584" y="379" type="curve" smooth="yes"/>
      <point x="2587" y="379" type="line"/>
    </contour>
    <contour>
      <point x="2159" y="847" type="line"/>
      <point x="2166" y="847"/>
      <point x="2175" y="853"/>
      <point x="2178" y="860" type="curve" smooth="yes"/>
      <point x="2297" y="1171" type="line"/>
      <point x="2704" y="1171" type="line"/>
      <point x="2821" y="860" type="line" smooth="yes"/>
      <point x="2824" y="853"/>
      <point x="2833" y="847"/>
      <point x="2840" y="847" type="curve" smooth="yes"/>
      <point x="2973" y="847" type="line" smooth="yes"/>
      <point x="2986" y="847"/>
      <point x="2993" y="853"/>
      <point x="2993" y="866" type="curve" smooth="yes"/>
      <point x="2993" y="869"/>
      <point x="2993" y="872"/>
      <point x="2992" y="874" type="curve" smooth="yes"/>
      <point x="2596" y="1926" type="line" smooth="yes"/>
      <point x="2593" y="1933"/>
      <point x="2584" y="1939"/>
      <point x="2577" y="1939" type="curve" smooth="yes"/>
      <point x="2424" y="1939" type="line" smooth="yes"/>
      <point x="2417" y="1939"/>
      <point x="2408" y="1933"/>
      <point x="2405" y="1926" type="curve" smooth="yes"/>
      <point x="2328" y="1719"/>
      <point x="2245" y="1500"/>
      <point x="2166" y="1293" type="curve" smooth="yes"/>
      <point x="2007" y="874" type="line" smooth="yes"/>
      <point x="2006" y="872"/>
      <point x="2006" y="869"/>
      <point x="2006" y="866" type="curve" smooth="yes"/>
      <point x="2006" y="853"/>
      <point x="2013" y="847"/>
      <point x="2026" y="847" type="curve" smooth="yes"/>
    </contour>
    <contour>
      <point x="1966" y="982" type="line"/>
      <point x="1505" y="982" type="line"/>
      <point x="1505" y="1939" type="line"/>
      <point x="1340" y="1939" type="line"/>
      <point x="1340" y="847" type="line"/>
      <point x="1966" y="847" type="line"/>
    </contour>
    <contour>
      <point x="1786" y="-227" type="line"/>
      <point x="1325" y="-227" type="line"/>
      <point x="1325" y="730" type="line"/>
      <point x="1160" y="730" type="line"/>
      <point x="1160" y="-362" type="line"/>
      <point x="1786" y="-362" type="line"/>
    </contour>
    <contour>
      <point x="659" y="434" type="line"/>
      <point x="495" y="434" type="line"/>
      <point x="495" y="780" type="line"/>
      <point x="198" y="780" type="line"/>
      <point x="568" y="1230" type="line"/>
      <point x="586" y="1230" type="line"/>
      <point x="956" y="780" type="line"/>
      <point x="659" y="780" type="line"/>
    </contour>
    <contour>
      <point x="661" y="1358" type="line"/>
      <point x="632" y="1386"/>
      <point x="604" y="1400"/>
      <point x="577" y="1400" type="curve" smooth="yes"/>
      <point x="549" y="1400"/>
      <point x="518" y="1388"/>
      <point x="493" y="1358" type="curve" smooth="yes"/>
      <point x="86" y="870" type="line" smooth="yes"/>
      <point x="66" y="846"/>
      <point x="50" y="811"/>
      <point x="50" y="768" type="curve" smooth="yes"/>
      <point x="50" y="677"/>
      <point x="115" y="636"/>
      <point x="169" y="636" type="curve" smooth="yes"/>
      <point x="377" y="636" type="line"/>
      <point x="377" y="442" type="line" smooth="yes"/>
      <point x="377" y="362"/>
      <point x="430" y="297"/>
      <point x="496" y="297" type="curve" smooth="yes"/>
      <point x="658" y="297" type="line" smooth="yes"/>
      <point x="723" y="297"/>
      <point x="777" y="362"/>
      <point x="777" y="442" type="curve" smooth="yes"/>
      <point x="777" y="635" type="line"/>
      <point x="984" y="635" type="line" smooth="yes"/>
      <point x="1038" y="635"/>
      <point x="1103" y="675"/>
      <point x="1103" y="768" type="curve" smooth="yes"/>
      <point x="1103" y="810"/>
      <point x="1089" y="845"/>
      <point x="1068" y="870" type="curve" smooth="yes"/>
    </contour>
  </outline>
</glyph>
<glyph name="shifted_lock" format="2">
  <advance width="1911"/>
  <unicode hex="E074"/>
  <outline>
    <contour>
      <point x="764" y="56" type="curve" smooth="yes"/>
      <point x="1147" y="56" type="line" smooth="yes"/>
      <point x="1253" y="56"/>
      <point x="1340" y="138"/>
      <point x="1340" y="246" type="curve" smooth="yes"/>
      <point x="1340" y="474" type="line"/>
      <point x="1668" y="474" type="line" smooth="yes"/>
      <point x="1769" y="474"/>
      <point x="1861" y="556"/>
      <point x="1861" y="667" type="curve"/>
      <point x="1860" y="717"/>
      <point x="1843" y="763"/>
      <point x="1804" y="803" type="curve" smooth="yes"/>
      <point x="1092" y="1516" type="line" smooth="yes"/>
      <point x="1056" y="1552"/>
      <point x="1007" y="1573"/>
      <point x="956" y="1573" type="curve" smooth="yes"/>
      <point x="902" y="1573"/>
      <point x="855" y="1552"/>
      <point x="819" y="1516" type="curve" smooth="yes"/>
      <point x="107" y="803" type="line" smooth="yes"/>
      <point x="69" y="765"/>
      <point x="50" y="720"/>
      <point x="50" y="667" type="curve" smooth="yes"/>
      <point x="50" y="557"/>
      <point x="140" y="474"/>
      <point x="242" y="474" type="curve" smooth="yes"/>
      <point x="571" y="474" type="line"/>
      <point x="571" y="246" type="line" smooth="yes"/>
      <point x="571" y="138"/>
      <point x="657" y="56"/>
    </contour>
    <contour>
      <point x="657" y="-304" type="curve" smooth="yes"/>
      <point x="1256" y="-304" type="line"/>
      <point x="1348" y="-304"/>
      <point x="1380" y="-253"/>
      <point x="1380" y="-204" type="curve" smooth="yes"/>
      <point x="1380" y="-185" type="line" smooth="yes"/>
      <point x="1380" y="-134"/>
      <point x="1346" y="-84"/>
      <point x="1254" y="-84" type="curve" smooth="yes"/>
      <point x="657" y="-84" type="line" smooth="yes"/>
      <point x="565" y="-84"/>
      <point x="531" y="-134"/>
      <point x="531" y="-184" type="curve" smooth="yes"/>
      <point x="531" y="-202" type="line" smooth="yes"/>
      <point x="531" y="-253"/>
      <point x="565" y="-304"/>
    </contour>
  </outline>
</glyph>
<glyph name="emquad" format="2">
  <advance width="2048"/>
  <unicode hex="E085"/>
  <outline>
    <component base="_part.dot" xOffset="704"/>
    <component base="_part.spaceside" xOffset="384" yOffset="332"/>
    <component base="_part.spaceside" xOffset="1472" yOffset="332"/>
    <contour>
      <point x="432" y="188" type="line"/>
      <point x="1616" y="188" type="line"/>
      <point x="1616" y="284" type="line"/>
      <point x="432" y="284" type="line"/>
    </contour>
  </outline>
</glyph>
<glyph name="figuresp" format="2">
  <advance width="800"/>
  <unicode hex="E08B"/>
  <outline>
    <component base="_part.dot" xOffset="80"/>
    <contour>
      <point x="439" y="1592" type="line"/>
      <point x="362" y="1592" type="line"/>
      <point x="362" y="1064" type="line"/>
      <point x="439" y="1064" type="line"/>
    </contour>
    <contour>
      <point x="583" y="1141" type="line"/>
      <point x="218" y="1141" type="line"/>
      <point x="218" y="1064" type="line"/>
      <point x="583" y="1064" type="line"/>
    </contour>
    <contour>
      <point x="434" y="1592" type="line"/>
      <point x="348" y="1592" type="line"/>
      <point x="209" y="1436" type="line"/>
      <point x="268" y="1384" type="line"/>
    </contour>
  </outline>
</glyph>
<glyph name="nbsp.old" format="2">
  <advance width="640"/>
  <outline>
    <component base="_part.spaceside" xOffset="448"/>
    <component base="_part.spaceside"/>
    <component base="_part.ring"/>
    <component base="_part.spacebottom"/>
    <contour>
      <point x="32" y="702" type="line"/>
      <point x="208" y="702" type="line"/>
      <point x="208" y="798" type="line"/>
      <point x="32" y="798" type="line"/>
    </contour>
    <contour>
      <point x="432" y="702" type="line"/>
      <point x="608" y="702" type="line"/>
      <point x="608" y="798" type="line"/>
      <point x="432" y="798" type="line"/>
    </contour>
  </outline>
</glyph>
<glyph name="zwj.old" format="2">
  <advance width="784"/>
  <outline>
    <component base="_part.zwpart" xOffset="296"/>
    <component base="_part.zwpart" xOffset="296" yOffset="390"/>
    <component base="_part.zwpart" xOffset="296" yOffset="1560"/>
    <component base="_part.zwpart" xOffset="296" yOffset="1950"/>
    <contour>
      <point x="736" y="491" type="line"/>
      <point x="736" y="1009" type="line"/>
      <point x="404" y="750" type="line"/>
    </contour>
    <contour>
      <point x="48" y="491" type="line"/>
      <point x="380" y="750" type="line"/>
      <point x="48" y="1009" type="line"/>
    </contour>
    <contour>
      <point x="344" y="430" type="line"/>
      <point x="440" y="430" type="line"/>
      <point x="440" y="654" type="line"/>
      <point x="344" y="654" type="line"/>
    </contour>
    <contour>
      <point x="344" y="852" type="line"/>
      <point x="440" y="852" type="line"/>
      <point x="440" y="1076" type="line"/>
      <point x="344" y="1076" type="line"/>
    </contour>
  </outline>
</glyph>
